<svg width="70" height="70" viewBox="0 0 70 70" fill="none" xmlns="http://www.w3.org/2000/svg">
<mask id="mask0_30_39" style="mask-type:luminance" maskUnits="userSpaceOnUse" x="0" y="0" width="70" height="70">
<path d="M0.0933839 0.0933839H69.0107V69.0107H0.0933839V0.0933839Z" fill="white" stroke="white" stroke-width="0.186768"/>
</mask>
<g mask="url(#mask0_30_39)">
<path d="M11.7743 53.7439C14.8728 51.955 15.9345 47.9928 14.1455 44.8943C12.3566 41.7957 8.39443 40.734 5.29585 42.523C2.19727 44.312 1.13562 48.2741 2.92459 51.3727C4.71355 54.4713 8.67569 55.5329 11.7743 53.7439Z" stroke="black" stroke-width="1.86768" stroke-linecap="round" stroke-linejoin="round"/>
<path d="M47.7879 25.4708C48.6224 26.9163 48.6063 28.77 47.7474 30.6704C46.889 32.5689 45.2133 34.4378 42.8942 35.7768C40.5751 37.1157 38.1187 37.6325 36.0452 37.4265C33.9701 37.2203 32.3566 36.3072 31.5221 34.8618C30.6876 33.4164 30.7035 31.5626 31.5626 29.6622C32.4208 27.7637 34.0967 25.8947 36.4158 24.5558C38.7349 23.2168 41.1913 22.7001 43.2648 22.9061C45.3399 23.1122 46.9532 24.0254 47.7879 25.4708Z" stroke="black" stroke-width="1.86768" stroke-linecap="round" stroke-linejoin="round"/>
<path d="M14.9511 37.2752L24.5207 31.75L21.5876 48.7698L31.1572 43.2448" stroke="black" stroke-width="1.86768" stroke-linecap="round" stroke-linejoin="round"/>
<path d="M60.6441 12.1772L66.169 21.7468L49.1492 18.8136L54.6744 28.3834" stroke="black" stroke-width="1.86768" stroke-linecap="round" stroke-linejoin="round"/>
</g>
</svg>
