<svg width="30" height="32" viewBox="0 0 30 32" fill="none" xmlns="http://www.w3.org/2000/svg">
<path d="M26.2009 20.9357H10.4894C10.2287 20.9361 9.97564 20.8461 9.77173 20.6804C9.56782 20.5148 9.42522 20.2833 9.36734 20.024L6.72182 8.26879C6.68313 8.09707 6.68289 7.91866 6.72115 7.74684C6.7594 7.57502 6.83515 7.41421 6.94276 7.27638C7.05038 7.13855 7.18708 7.02724 7.3427 6.95074C7.49832 6.87424 7.66886 6.83452 7.84161 6.83454H28.8487C29.0217 6.83417 29.1925 6.87363 29.3484 6.94998C29.5043 7.02632 29.6413 7.13758 29.7492 7.27546C29.857 7.41334 29.933 7.57428 29.9714 7.74627C30.0098 7.91827 30.0096 8.09688 29.9708 8.26879L27.3207 20.024C27.2629 20.2829 27.1207 20.5141 26.9172 20.6797C26.7138 20.8453 26.4612 20.9356 26.2009 20.9357ZM11.4039 18.5921H25.2864L27.4057 9.18043H9.28385L11.4039 18.5921Z" fill="black"/>
<path d="M12.7374 31.4036C11.8667 31.4036 11.0155 31.1402 10.2915 30.6468C9.56747 30.1534 9.00318 29.4522 8.66997 28.6317C8.33675 27.8112 8.24956 26.9084 8.41943 26.0373C8.58931 25.1663 9.00861 24.3662 9.62432 23.7383C10.24 23.1103 11.0245 22.6826 11.8785 22.5094C12.7325 22.3361 13.6177 22.425 14.4222 22.7649C15.2267 23.1048 15.9142 23.6803 16.398 24.4187C16.8818 25.1571 17.14 26.0252 17.14 26.9133C17.1387 28.1038 16.6745 29.2452 15.8491 30.087C15.0238 30.9289 13.9047 31.4023 12.7374 31.4036ZM12.7374 24.7674C12.3211 24.7674 11.9141 24.8933 11.568 25.1293C11.2218 25.3652 10.9521 25.7005 10.7928 26.0928C10.6335 26.4851 10.5919 26.9168 10.6731 27.3332C10.7544 27.7496 10.9549 28.1321 11.2494 28.4323C11.5438 28.7325 11.9189 28.9369 12.3273 29.0197C12.7356 29.1024 13.1588 29.0598 13.5434 28.8972C13.928 28.7346 14.2566 28.4593 14.4878 28.1062C14.719 27.7531 14.8423 27.3379 14.8422 26.9133C14.8416 26.3443 14.6196 25.7987 14.225 25.3964C13.8304 24.994 13.2954 24.7678 12.7374 24.7674Z" fill="black"/>
<path d="M23.9521 31.4036C23.0814 31.4036 22.2302 31.1402 21.5062 30.6468C20.7822 30.1534 20.2179 29.4522 19.8847 28.6317C19.5515 27.8112 19.4643 26.9084 19.6342 26.0373C19.804 25.1663 20.2233 24.3662 20.839 23.7383C21.4548 23.1103 22.2392 22.6826 23.0932 22.5094C23.9472 22.3361 24.8324 22.425 25.6369 22.7649C26.4414 23.1048 27.129 23.6803 27.6127 24.4187C28.0965 25.1571 28.3547 26.0252 28.3547 26.9133C28.3535 28.1038 27.8892 29.2452 27.0639 30.087C26.2385 30.9289 25.1194 31.4023 23.9521 31.4036ZM23.9521 24.7674C23.5358 24.7674 23.1288 24.8933 22.7827 25.1293C22.4365 25.3652 22.1668 25.7005 22.0075 26.0928C21.8482 26.4851 21.8066 26.9168 21.8878 27.3332C21.9691 27.7496 22.1697 28.1321 22.4641 28.4323C22.7585 28.7325 23.1336 28.9369 23.542 29.0197C23.9503 29.1024 24.3735 29.0598 24.7581 28.8972C25.1427 28.7346 25.4714 28.4593 25.7026 28.1062C25.9337 27.7531 26.057 27.3379 26.0569 26.9133C26.0563 26.3443 25.8343 25.7987 25.4397 25.3964C25.0451 24.994 24.5101 24.7678 23.9521 24.7674Z" fill="black"/>
<path d="M7.84158 9.17811C7.60042 9.17809 7.36538 9.10067 7.16976 8.95682C6.97415 8.81297 6.82787 8.60998 6.75167 8.37662L4.78246 2.34355H1.14889C0.844188 2.34355 0.551963 2.22009 0.336503 2.00034C0.121044 1.78059 0 1.48255 0 1.17177C0 0.861 0.121044 0.562955 0.336503 0.343205C0.551963 0.123454 0.844188 0 1.14889 0H5.61426C5.85542 2.27577e-05 6.09046 0.0774443 6.28608 0.221295C6.4817 0.365146 6.62797 0.568132 6.70418 0.801493L8.93533 7.63606C8.99285 7.81218 9.00851 7.99973 8.98103 8.18324C8.95356 8.36674 8.88372 8.54097 8.77729 8.69156C8.67085 8.84215 8.53086 8.96479 8.36884 9.04938C8.20683 9.13398 8.02742 9.1781 7.84541 9.17811H7.84158Z" fill="black"/>
</svg>
