<svg width="167" height="135" viewBox="0 0 167 135" fill="none" xmlns="http://www.w3.org/2000/svg">
<path d="M2 134.51L41.5 41.5095H68L40.5 108.5H95.5L85 134.51H2Z" fill="url(#paint0_linear_218_402)"/>
<path d="M103 134.009L112.5 109.509H126.5C134 109 139 105.5 140.5 97.5096C141 92.0096 139.4 80.8096 129 80.0096H69.5L79.5 55.0095H128.261C132 55.0095 137.005 51.5 138.5 48.5095C139.255 47 141 41.0095 140.5 37.5095C139.5 32.5095 138 26.5095 126 25.0095H2L12.5 1.00938H99C111 1.00943 131.5 0.832883 135.5 2.00938C144.5 4.00952 161.6 13.3094 164 28.5094C165.635 36.85 165.313 56.1674 155.096 67.8485C154.762 68.2303 154.748 68.8001 155.071 69.191C158.174 72.9405 164.374 81.2542 165.5 89.5094C166.667 96.8427 164 117.5 152 127.5C144.928 133.393 140.5 134.009 103 134.009Z" fill="#010101" stroke="black" stroke-width="2" stroke-linecap="round"/>
<defs>
<linearGradient id="paint0_linear_218_402" x1="53" y1="42" x2="53" y2="135" gradientUnits="userSpaceOnUse">
<stop stop-color="#00E655"/>
<stop offset="1" stop-color="#004F01" stop-opacity="0.99"/>
</linearGradient>
</defs>
</svg>
