<svg width="192" height="59" viewBox="0 0 192 59" fill="none" xmlns="http://www.w3.org/2000/svg">
<path d="M79.7508 46V15.0287H92.0318C94.1253 15.0287 95.8387 15.4517 97.1722 16.2977C98.52 17.1293 99.5165 18.1975 100.162 19.5023C100.821 20.8071 101.151 22.155 101.151 23.5458C101.151 25.2521 100.742 26.7003 99.9252 27.8904C99.1222 29.0805 98.0253 29.8835 96.6345 30.2993V29.2239C98.5845 29.6684 100.061 30.5932 101.065 31.9984C102.083 33.4036 102.592 35.0023 102.592 36.7946C102.592 38.63 102.241 40.2359 101.538 41.6124C100.836 42.9889 99.789 44.0643 98.3981 44.8386C97.0216 45.6129 95.3154 46 93.2793 46H79.7508ZM84.9988 41.1177H92.634C93.5374 41.1177 94.3475 40.9385 95.0644 40.58C95.7814 40.2072 96.3406 39.691 96.742 39.0315C97.1579 38.3575 97.3658 37.5618 97.3658 36.6441C97.3658 35.8125 97.1865 35.0668 96.8281 34.4073C96.4696 33.7477 95.9462 33.2243 95.258 32.8372C94.5697 32.4357 93.7453 32.235 92.7846 32.235H84.9988V41.1177ZM84.9988 27.3957H91.9673C92.7129 27.3957 93.3796 27.2523 93.9675 26.9656C94.5554 26.6788 95.0214 26.2558 95.3655 25.6966C95.7097 25.1374 95.8817 24.4491 95.8817 23.6318C95.8817 22.5565 95.5376 21.6603 94.8493 20.9434C94.1611 20.2264 93.2004 19.868 91.9673 19.868H84.9988V27.3957ZM107.318 46V14.3835H112.501V46H107.318ZM129.203 46.6452C126.88 46.6452 124.851 46.1219 123.116 45.0752C121.381 44.0284 120.034 42.5874 119.073 40.7521C118.127 38.9024 117.653 36.7803 117.653 34.3858C117.653 31.9482 118.141 29.8118 119.116 27.9764C120.091 26.1411 121.446 24.7072 123.181 23.6749C124.916 22.6425 126.923 22.1263 129.203 22.1263C131.54 22.1263 133.576 22.6497 135.311 23.6964C137.046 24.7431 138.394 26.1913 139.355 28.041C140.315 29.8763 140.796 31.9912 140.796 34.3858C140.796 36.7946 140.308 38.9239 139.333 40.7736C138.373 42.6089 137.025 44.05 135.29 45.0967C133.555 46.129 131.526 46.6452 129.203 46.6452ZM129.203 41.7845C131.268 41.7845 132.802 41.0962 133.806 39.7197C134.809 38.3432 135.311 36.5652 135.311 34.3858C135.311 32.1346 134.802 30.3423 133.784 29.0088C132.766 27.661 131.239 26.9871 129.203 26.9871C127.812 26.9871 126.665 27.3025 125.762 27.9334C124.873 28.55 124.213 29.4175 123.783 30.5359C123.353 31.6399 123.138 32.9232 123.138 34.3858C123.138 36.6369 123.647 38.4364 124.665 39.7842C125.697 41.1177 127.21 41.7845 129.203 41.7845ZM155.622 46.6452C153.227 46.6452 151.184 46.1147 149.492 45.0537C147.8 43.9783 146.502 42.5157 145.599 40.6661C144.71 38.8164 144.258 36.723 144.244 34.3858C144.258 32.0056 144.724 29.8978 145.642 28.0625C146.574 26.2128 147.893 24.7646 149.6 23.7179C151.306 22.6568 153.335 22.1263 155.686 22.1263C158.325 22.1263 160.554 22.793 162.375 24.1265C164.211 25.4457 165.408 27.2523 165.967 29.5465L160.805 30.9445C160.404 29.6971 159.737 28.7292 158.805 28.041C157.873 27.3384 156.812 26.9871 155.622 26.9871C154.274 26.9871 153.163 27.3097 152.288 27.9549C151.413 28.5858 150.768 29.4605 150.352 30.5789C149.937 31.6973 149.729 32.9662 149.729 34.3858C149.729 36.5939 150.223 38.3791 151.213 39.7412C152.202 41.1034 153.672 41.7845 155.622 41.7845C156.998 41.7845 158.081 41.469 158.869 40.8381C159.672 40.2072 160.275 39.2967 160.676 38.1066L165.967 39.2896C165.25 41.6554 163.995 43.4764 162.203 44.7525C160.411 46.0143 158.217 46.6452 155.622 46.6452ZM170.234 46L170.277 15.0287H175.525V33.9556L184.021 22.7715H190.494L181.483 34.3858L191.269 46H184.408L175.525 34.8159V46H170.234Z" fill="black"/>
<path d="M3.44125 46V15.0287H8.62464V41.1392H22.3036V46H3.44125ZM36.5075 46.6452C34.156 46.6452 32.0913 46.1362 30.3133 45.1182C28.5353 44.1001 27.1445 42.6878 26.1408 40.8811C25.1514 39.0745 24.6567 36.9954 24.6567 34.6439C24.6567 32.1059 25.1442 29.905 26.1193 28.041C27.0943 26.1626 28.4493 24.7072 30.1842 23.6749C31.9192 22.6425 33.9266 22.1263 36.2064 22.1263C38.6153 22.1263 40.6586 22.6927 42.3362 23.8254C44.0281 24.9438 45.2827 26.5282 46.1 28.5786C46.9173 30.6291 47.2256 33.0451 47.0249 35.8268H41.8845V33.9341C41.8702 31.4105 41.4257 29.568 40.551 28.4066C39.6764 27.2452 38.2999 26.6645 36.4215 26.6645C34.2994 26.6645 32.7222 27.324 31.6898 28.6432C30.6574 29.948 30.1412 31.8622 30.1412 34.3858C30.1412 36.7373 30.6574 38.5583 31.6898 39.8488C32.7222 41.1392 34.2277 41.7845 36.2064 41.7845C37.4826 41.7845 38.5795 41.5049 39.4971 40.9457C40.4291 40.3721 41.1461 39.5476 41.6479 38.4723L46.7668 40.0208C45.8778 42.1143 44.5013 43.7417 42.6373 44.9031C40.7876 46.0645 38.7444 46.6452 36.5075 46.6452ZM28.5066 35.8268V31.9124H44.487V35.8268H28.5066ZM62.3842 46.6452C60.0326 46.6452 57.9679 46.1362 56.1899 45.1182C54.4119 44.1001 53.0211 42.6878 52.0174 40.8811C51.028 39.0745 50.5333 36.9954 50.5333 34.6439C50.5333 32.1059 51.0209 29.905 51.9959 28.041C52.9709 26.1626 54.3259 24.7072 56.0609 23.6749C57.7958 22.6425 59.8032 22.1263 62.0831 22.1263C64.4919 22.1263 66.5352 22.6927 68.2128 23.8254C69.9047 24.9438 71.1594 26.5282 71.9767 28.5786C72.794 30.6291 73.1022 33.0451 72.9015 35.8268H67.7611V33.9341C67.7468 31.4105 67.3023 29.568 66.4276 28.4066C65.553 27.2452 64.1765 26.6645 62.2981 26.6645C60.176 26.6645 58.5988 27.324 57.5664 28.6432C56.534 29.948 56.0178 31.8622 56.0178 34.3858C56.0178 36.7373 56.534 38.5583 57.5664 39.8488C58.5988 41.1392 60.1043 41.7845 62.0831 41.7845C63.3592 41.7845 64.4561 41.5049 65.3738 40.9457C66.3058 40.3721 67.0227 39.5476 67.5245 38.4723L72.6434 40.0208C71.7544 42.1143 70.3779 43.7417 68.5139 44.9031C66.6642 46.0645 64.621 46.6452 62.3842 46.6452ZM54.3832 35.8268V31.9124H70.3636V35.8268H54.3832Z" fill="url(#paint0_linear_143_258)"/>
<defs>
<linearGradient id="paint0_linear_143_258" x1="3.44828" y1="27.6023" x2="73.4269" y2="30.1001" gradientUnits="userSpaceOnUse">
<stop stop-color="#1FE121"/>
<stop offset="1" stop-color="#B8FF4D" stop-opacity="0.69"/>
</linearGradient>
</defs>
</svg>
