<svg width="30" height="30" viewBox="0 0 30 30" fill="none" xmlns="http://www.w3.org/2000/svg">
<path d="M11.6612 0C5.22147 0 0 5.16824 0 11.5423C0 17.9164 5.22147 23.0846 11.6612 23.0846C14.1375 23.0846 16.4341 22.3201 18.3218 21.0179L18.3232 21.0165L26.9716 29.5769C27.1321 29.7357 27.3873 29.7398 27.552 29.5769L29.8829 27.2697C30.0434 27.1109 30.0351 26.8475 29.8815 26.6954L21.2343 18.1364C22.55 16.2665 23.3224 13.9933 23.3224 11.5423C23.3224 5.16824 18.1009 0 11.6612 0ZM11.6612 20.3688C6.736 20.3688 2.74377 16.4173 2.74377 11.5423C2.74377 6.66738 6.73605 2.71585 11.6612 2.71585C16.5863 2.71585 20.5785 6.66738 20.5785 11.5423C20.5785 16.4173 16.5863 20.3688 11.6612 20.3688Z" fill="black"/>
</svg>
